<?xml version="1.0" encoding="UTF-8"?>
<svg width="120px" height="120px" viewBox="0 0 120 120" version="1.1" xmlns="http://www.w3.org/2000/svg" xmlns:xlink="http://www.w3.org/1999/xlink">
    <!-- Generator: Sketch 52.4 (67378) - http://www.bohemiancoding.com/sketch -->
    <title>Phylodeny Explorer Logo Color</title>
    <desc>Created with Sketch.</desc>
    <g id="Phylodeny-Explorer-Logo-Color" stroke="none" stroke-width="1" fill="none" fill-rule="evenodd">
        <g id="logo">
            <path d="M54.0092357,58.9827462 L43.8926902,52.5751262 L29.3024354,52.4616754 L17.213923,54.3922866 C16.6754091,54.4782906 16.1691372,54.1114589 16.0831332,53.572945 C16.0824105,53.5684196 16.0817192,53.5638892 16.0810596,53.5593542 C16.0006609,53.0066287 16.3725603,52.4895539 16.9221474,52.3899375 L27.7956752,50.4190364 L19.313046,43.0833723 C18.8965318,42.7231764 18.8435423,42.0964267 19.19367,41.671414 C19.5399051,41.2511263 20.1612946,41.1910948 20.5815823,41.53733 C20.5826659,41.5382226 20.5837475,41.5391176 20.5848272,41.5400148 L30.1518669,49.4902331 L42.8510476,49.0596821 L36.8731711,37.8485927 L25.1774098,33.5535772 C24.6740147,33.3687162 24.4157917,32.8107744 24.6006527,32.3073793 C24.601038,32.3063301 24.6014252,32.3052815 24.6018141,32.3042336 C24.7904579,31.7959688 25.3497984,31.5306442 25.8627659,31.7060979 L36.4991703,35.3441407 L32.7986923,24.8300724 C32.6209296,24.3249999 32.8825339,23.7709056 33.3854813,23.5872165 C33.8890378,23.403305 34.4470196,23.657349 34.6389436,24.1579064 L39.0306478,35.6119173 L46.4320746,48.1767835 L57.0426807,53.7654537 L57.5312855,41.856133 L50.3344093,29.1638763 L42.6181948,19.660223 C42.2744562,19.2368583 42.3390059,18.6149982 42.7623706,18.2712596 C42.7659283,18.2683709 42.7695061,18.2655071 42.7731038,18.2626683 C43.2115787,17.9166783 43.8453283,17.9802152 44.2063922,18.4063634 L51.3500065,26.8376642 L53.4615634,15.8236597 C53.5652451,15.2828499 54.0815315,14.9235849 54.6246671,15.0142979 C55.1617645,15.1040025 55.524448,15.6121259 55.4347435,16.1492233 C55.4345122,16.1506079 55.434278,16.1519921 55.4340408,16.1533758 L53.3324697,28.4137844 L60.0549281,39.196322 L66.775078,28.4137844 L64.6467899,16.1374502 C64.5551867,15.6090668 64.909267,15.1064683 65.4376504,15.014865 C65.4387517,15.0146741 65.4398534,15.014485 65.4409554,15.0142979 C65.9754475,14.9235358 66.4848957,15.2752766 66.5894319,15.8072464 L68.7569967,26.8376642 L76.012208,18.3759221 C76.3607322,17.9694388 76.9713941,17.9189476 77.3819473,18.2626683 C77.7929975,18.6068052 77.8519798,19.2170537 77.5144465,19.6335434 L69.7908341,29.1638763 L62.6100542,41.856133 L63.0710979,53.7280492 L73.5571313,48.2342774 L80.9505099,35.6554714 L85.3228079,24.221207 C85.5175831,23.7118383 86.0884046,23.4568099 86.5977734,23.6515851 C86.6020539,23.6532219 86.6063229,23.6548885 86.6105802,23.6565847 C87.1294538,23.8633202 87.3913041,24.4439319 87.2027809,24.9696965 L83.4728673,35.3718983 L94.0670534,31.693558 C94.5872493,31.5129441 95.1565252,31.7804287 95.3495332,32.2961545 C95.5403954,32.8061467 95.2816895,33.3743016 94.7716972,33.5651638 C94.7703824,33.5656559 94.7690665,33.5661452 94.7677496,33.5666316 L83.0991388,37.8768219 L77.1224165,49.0899104 L89.820443,49.5184622 L99.3879162,41.5371436 C99.799708,41.1936211 100.412011,41.2489644 100.755534,41.6607562 C100.75625,41.6616146 100.756964,41.6624741 100.757677,41.6633349 C101.103526,42.0808376 101.053633,42.697903 100.645202,43.054419 L92.1763624,50.446794 L103.132052,52.4991203 C103.658339,52.5977095 104.007396,53.1013126 103.915002,53.6287224 C103.822496,54.1567708 103.323496,54.5129752 102.794039,54.4289076 L90.6787223,52.5052295 L76.0965156,52.6326201 L66.0119986,58.9890689 L76.0515401,65.3479161 L90.6417949,65.4613668 L102.730307,63.5307557 C103.268821,63.4447517 103.775093,63.8115834 103.861097,64.3500973 C103.86182,64.3546227 103.862511,64.3591531 103.863171,64.3636881 C103.943569,64.9164136 103.57167,65.4334884 103.022083,65.5331048 L92.1485551,67.5040058 L100.631184,74.83967 C101.047699,75.1998658 101.100688,75.8266156 100.75056,76.2516283 C100.404325,76.671916 99.7829357,76.7319474 99.362648,76.3857123 C99.3615644,76.3848197 99.3604828,76.3839247 99.3594031,76.3830275 L89.7923634,68.4328092 L77.0931827,68.8633601 L83.0710592,80.0744496 L94.7668205,84.3694651 C95.2702156,84.554326 95.5284386,85.1122678 95.3435776,85.615663 C95.3431923,85.6167122 95.3428052,85.6177608 95.3424162,85.6188087 C95.1537725,86.1270735 94.5944319,86.3923981 94.0814644,86.2169443 L83.44506,82.5789015 L87.145538,93.0929699 C87.3233007,93.5980424 87.0616964,94.1521367 86.558749,94.3358258 C86.0551926,94.5197373 85.4972107,94.2656933 85.3052867,93.7651359 L80.9135825,82.3111249 L73.5121557,69.7462588 L63.0667626,64.2446073 L62.5785706,76.143867 L69.7754468,88.8361237 L77.4916613,98.339777 C77.8353999,98.7631417 77.7708502,99.3850018 77.3474855,99.7287404 C77.3439278,99.7316291 77.34035,99.7344929 77.3367523,99.7373317 C76.8982774,100.083322 76.2645278,100.019785 75.9034639,99.5936366 L68.7598496,91.1623358 L66.6482927,102.17634 C66.544611,102.71715 66.0283246,103.076415 65.485189,102.985702 C64.9480916,102.895998 64.5854081,102.387874 64.6751126,101.850777 C64.6753439,101.849392 64.6755781,101.848008 64.6758153,101.846624 L66.7773864,89.5862156 L60.0549281,78.803678 L53.3347781,89.5862156 L55.4630662,101.86255 C55.5546694,102.390933 55.2005891,102.893532 54.6722057,102.985135 C54.6711044,102.985326 54.6700027,102.985515 54.6689007,102.985702 C54.1344086,103.076464 53.6249604,102.724723 53.5204242,102.192754 L51.3528594,91.1623358 L44.0976481,99.6240779 C43.7491239,100.030561 43.138462,100.081052 42.7279088,99.7373317 C42.3168586,99.3931948 42.2578763,98.7829463 42.5954096,98.3664566 L50.319022,88.8361237 L57.4998019,76.143867 L57.0359934,64.2007566 L46.4455665,69.7492214 L39.0521879,82.3280274 L34.67989,93.7622918 C34.4851147,94.2716606 33.9142932,94.526689 33.4049244,94.3319137 C33.400644,94.3302769 33.3963749,94.3286103 33.3921176,94.3269141 C32.873244,94.1201787 32.6113938,93.539567 32.799917,93.0138024 L36.5298305,82.6116005 L25.9356444,86.2899409 C25.4154485,86.4705548 24.8461726,86.2030702 24.6531647,85.6873444 C24.4623024,85.1773521 24.7210084,84.6091973 25.2310006,84.418335 C25.2323155,84.4178429 25.2336313,84.4173537 25.2349482,84.4168672 L36.903559,80.106677 L42.8802814,68.8935884 L30.1822549,68.4650367 L20.6147817,76.4463553 C20.2029898,76.7898777 19.5906866,76.7345345 19.2471641,76.3227426 C19.2464481,76.3218843 19.2457336,76.3210248 19.2450205,76.320164 C18.8991721,75.9026613 18.9490646,75.2855958 19.3574957,74.9290799 L27.8263354,67.5367048 L16.8706462,65.4843786 C16.3443591,65.3857894 15.9953016,64.8821863 16.0876959,64.3547765 C16.1802021,63.8267281 16.6792015,63.4705236 17.2086589,63.5545912 L29.3239755,65.4782693 L43.9061822,65.3508788 L54.0092357,58.9827462 Z" id="Combined-Shape-Copy-3" fill="#AF996B"></path>
            <path d="M53,1 C55,3.53021323 56,6.13021323 56,8.8 C56,11.4697868 55,13.2031201 53,14 C51,13.2031201 50,11.3614534 50,8.475 C50,5.58854656 51,3.09687989 53,1 Z" id="Rectangle-Copy-13" fill="#0DC9AE" transform="translate(53.000000, 7.500000) rotate(-6.000000) translate(-53.000000, -7.500000) "></path>
            <path d="M66,1 C68,3.53021323 69,6.13021323 69,8.8 C69,11.4697868 68,13.2031201 66,14 C64,13.2031201 63,11.3614534 63,8.475 C63,5.58854656 64,3.09687989 66,1 Z" id="Rectangle-Copy-21" fill="#0DC9AE" transform="translate(66.000000, 7.500000) rotate(6.000000) translate(-66.000000, -7.500000) "></path>
            <path d="M53,106 C55,108.530213 56,111.130213 56,113.8 C56,116.469787 55,118.20312 53,119 C51,118.20312 50,116.361453 50,113.475 C50,110.588547 51,108.09688 53,106 Z" id="Rectangle-Copy-13" fill="#0DC9AE" transform="translate(53.000000, 112.500000) scale(1, -1) rotate(-6.000000) translate(-53.000000, -112.500000) "></path>
            <path d="M66,106 C68,108.530213 69,111.130213 69,113.8 C69,116.469787 68,118.20312 66,119 C64,118.20312 63,116.361453 63,113.475 C63,110.588547 64,108.09688 66,106 Z" id="Rectangle-Copy-21" fill="#0DC9AE" transform="translate(66.000000, 112.500000) scale(1, -1) rotate(6.000000) translate(-66.000000, -112.500000) "></path>
            <path d="M80,4 C82,6.53021323 83,9.13021323 83,11.8 C83,14.4697868 82,16.2031201 80,17 C78,16.2031201 77,14.3614534 77,11.475 C77,8.58854656 78,6.09687989 80,4 Z" id="Rectangle-Copy-13" fill="#0DC9AE" transform="translate(80.000000, 10.500000) rotate(-336.000000) translate(-80.000000, -10.500000) "></path>
            <path d="M92,11 C94,13.5302132 95,16.1302132 95,18.8 C95,21.4697868 94,23.2031201 92,24 C90,23.2031201 89,21.3614534 89,18.475 C89,15.5885466 90,13.0968799 92,11 Z" id="Rectangle-Copy-21" fill="#0DC9AE" transform="translate(92.000000, 17.500000) rotate(-324.000000) translate(-92.000000, -17.500000) "></path>
            <path d="M27,96 C29,98.5302132 30,101.130213 30,103.8 C30,106.469787 29,108.20312 27,109 C25,108.20312 24,106.361453 24,103.475 C24,100.588547 25,98.0968799 27,96 Z" id="Rectangle-Copy-13" fill="#0DC9AE" transform="translate(27.000000, 102.500000) scale(1, -1) rotate(324.000000) translate(-27.000000, -102.500000) "></path>
            <path d="M39,102 C41,104.530213 42,107.130213 42,109.8 C42,112.469787 41,114.20312 39,115 C37,114.20312 36,112.361453 36,109.475 C36,106.588547 37,104.09688 39,102 Z" id="Rectangle-Copy-21" fill="#0DC9AE" transform="translate(39.000000, 108.500000) scale(1, -1) rotate(336.000000) translate(-39.000000, -108.500000) "></path>
            <path d="M102,21 C104,23.5302132 105,26.1302132 105,28.8 C105,31.4697868 104,33.2031201 102,34 C100,33.2031201 99,31.3614534 99,28.475 C99,25.5885466 100,23.0968799 102,21 Z" id="Rectangle-Copy-13" fill="#0DC9AE" transform="translate(102.000000, 27.500000) rotate(-306.000000) translate(-102.000000, -27.500000) "></path>
            <path d="M109,32 C111,34.5302132 112,37.1302132 112,39.8 C112,42.4697868 111,44.2031201 109,45 C107,44.2031201 106,42.3614534 106,39.475 C106,36.5885466 107,34.0968799 109,32 Z" id="Rectangle-Copy-21" fill="#0DC9AE" transform="translate(109.000000, 38.500000) rotate(-294.000000) translate(-109.000000, -38.500000) "></path>
            <path d="M11,74 C13,76.5302132 14,79.1302132 14,81.8 C14,84.4697868 13,86.2031201 11,87 C9,86.2031201 8,84.3614534 8,81.475 C8,78.5885466 9,76.0968799 11,74 Z" id="Rectangle-Copy-13" fill="#0DC9AE" transform="translate(11.000000, 80.500000) scale(1, -1) rotate(294.000000) translate(-11.000000, -80.500000) "></path>
            <path d="M17,85 C19,87.5302132 20,90.1302132 20,92.8 C20,95.4697868 19,97.2031201 17,98 C15,97.2031201 14,95.3614534 14,92.475 C14,89.5885466 15,87.0968799 17,85 Z" id="Rectangle-Copy-21" fill="#0DC9AE" transform="translate(17.000000, 91.500000) scale(1, -1) rotate(306.000000) translate(-17.000000, -91.500000) "></path>
            <path d="M113,47 C115,49.5302132 116,52.1302132 116,54.8 C116,57.4697868 115,59.2031201 113,60 C111,59.2031201 110,57.3614534 110,54.475 C110,51.5885466 111,49.0968799 113,47 Z" id="Rectangle-Copy-13" fill="#0DC9AE" transform="translate(113.000000, 53.500000) rotate(-276.000000) translate(-113.000000, -53.500000) "></path>
            <path d="M113,60 C115,62.5302132 116,65.1302132 116,67.8 C116,70.4697868 115,72.2031201 113,73 C111,72.2031201 110,70.3614534 110,67.475 C110,64.5885466 111,62.0968799 113,60 Z" id="Rectangle-Copy-21" fill="#0DC9AE" transform="translate(113.000000, 66.500000) rotate(-264.000000) translate(-113.000000, -66.500000) "></path>
            <path d="M7,47 C9,49.5302132 10,52.1302132 10,54.8 C10,57.4697868 9,59.2031201 7,60 C5,59.2031201 4,57.3614534 4,54.475 C4,51.5885466 5,49.0968799 7,47 Z" id="Rectangle-Copy-13" fill="#0DC9AE" transform="translate(7.000000, 53.500000) scale(1, -1) rotate(264.000000) translate(-7.000000, -53.500000) "></path>
            <path d="M7,60 C9,62.5302132 10,65.1302132 10,67.8 C10,70.4697868 9,72.2031201 7,73 C5,72.2031201 4,70.3614534 4,67.475 C4,64.5885466 5,62.0968799 7,60 Z" id="Rectangle-Copy-21" fill="#0DC9AE" transform="translate(7.000000, 66.500000) scale(1, -1) rotate(276.000000) translate(-7.000000, -66.500000) "></path>
            <path d="M27,11 C29,13.5302132 30,16.1302132 30,18.8 C30,21.4697868 29,23.2031201 27,24 C25,23.2031201 24,21.3614534 24,18.475 C24,15.5885466 25,13.0968799 27,11 Z" id="Rectangle-Copy-13" fill="#0DC9AE" transform="translate(27.000000, 17.500000) rotate(-36.000000) translate(-27.000000, -17.500000) "></path>
            <path d="M39,4 C41,6.53021323 42,9.13021323 42,11.8 C42,14.4697868 41,16.2031201 39,17 C37,16.2031201 36,14.3614534 36,11.475 C36,8.58854656 37,6.09687989 39,4 Z" id="Rectangle-Copy-21" fill="#0DC9AE" transform="translate(39.000000, 10.500000) rotate(-24.000000) translate(-39.000000, -10.500000) "></path>
            <path d="M80,102 C82,104.530213 83,107.130213 83,109.8 C83,112.469787 82,114.20312 80,115 C78,114.20312 77,112.361453 77,109.475 C77,106.588547 78,104.09688 80,102 Z" id="Rectangle-Copy-13" fill="#0DC9AE" transform="translate(80.000000, 108.500000) scale(1, -1) rotate(24.000000) translate(-80.000000, -108.500000) "></path>
            <path d="M92,96 C94,98.5302132 95,101.130213 95,103.8 C95,106.469787 94,108.20312 92,109 C90,108.20312 89,106.361453 89,103.475 C89,100.588547 90,98.0968799 92,96 Z" id="Rectangle-Copy-21" fill="#0DC9AE" transform="translate(92.000000, 102.500000) scale(1, -1) rotate(36.000000) translate(-92.000000, -102.500000) "></path>
            <path d="M11,32 C13,34.5302132 14,37.1302132 14,39.8 C14,42.4697868 13,44.2031201 11,45 C9,44.2031201 8,42.3614534 8,39.475 C8,36.5885466 9,34.0968799 11,32 Z" id="Rectangle-Copy-13" fill="#0DC9AE" transform="translate(11.000000, 38.500000) rotate(-66.000000) translate(-11.000000, -38.500000) "></path>
            <path d="M17,21 C19,23.5302132 20,26.1302132 20,28.8 C20,31.4697868 19,33.2031201 17,34 C15,33.2031201 14,31.3614534 14,28.475 C14,25.5885466 15,23.0968799 17,21 Z" id="Rectangle-Copy-21" fill="#0DC9AE" transform="translate(17.000000, 27.500000) rotate(-54.000000) translate(-17.000000, -27.500000) "></path>
            <path d="M102,85 C104,87.5302132 105,90.1302132 105,92.8 C105,95.4697868 104,97.2031201 102,98 C100,97.2031201 99,95.3614534 99,92.475 C99,89.5885466 100,87.0968799 102,85 Z" id="Rectangle-Copy-13" fill="#0DC9AE" transform="translate(102.000000, 91.500000) scale(1, -1) rotate(54.000000) translate(-102.000000, -91.500000) "></path>
            <path d="M109,74 C111,76.5302132 112,79.1302132 112,81.8 C112,84.4697868 111,86.2031201 109,87 C107,86.2031201 106,84.3614534 106,81.475 C106,78.5885466 107,76.0968799 109,74 Z" id="Rectangle-Copy-21" fill="#0DC9AE" transform="translate(109.000000, 80.500000) scale(1, -1) rotate(66.000000) translate(-109.000000, -80.500000) "></path>
        </g>
    </g>
</svg>
